<?xml version="1.0" encoding="UTF-8" standalone="yes"?>
<!DOCTYPE svg PUBLIC "-//W3C//DTD SVG 1.1//EN" "http://www.w3.org/Graphics/SVG/1.1/DTD/svg11.dtd">

<svg width="712" height="249" viewBox="0 0 712 249" xmlns="http://www.w3.org/2000/svg" xmlns:xlink="http://www.w3.org/1999/xlink" version="1.1" baseProfile="full">
    <defs>
        <linearGradient id="105553174849056140359056770944" x1="49.999950%" x2="50.000050%" y1="0.000000%" y2="515.683960%">
            <stop offset="0%" style="stop-color:#d30ed7;stop-opacity:1.000000"></stop>
            <stop offset="100%" style="stop-color:#dd43e0;stop-opacity:1.000000"></stop>
        </linearGradient>
        <linearGradient id="105553174849056140359056955520" x1="49.999928%" x2="50.000072%" y1="-39.936001%" y2="100.000000%">
            <stop offset="0%" style="stop-color:#d30ed7;stop-opacity:1.000000"></stop>
            <stop offset="100%" style="stop-color:#dd43e0;stop-opacity:1.000000"></stop>
        </linearGradient>
    </defs>
    <g transform="scale(1,-1) translate(0,-249)">
        <path d="M 1.000000 1.000000 L 713.000000 1.000000 L 713.000000 250.000000 L 1.000000 250.000000 Z" transform="scale(1.000000,1.000000) translate(-1.000000,-1.000000)" fill="#000000" opacity="1.000000"></path>
        <path d="M 10.800816 11.540000 Q 10.760816 12.460000 10.410816 13.140000 Q 10.060816 13.820000 9.460816 14.280000 Q 8.860816 14.740000 8.030816 14.970000 Q 7.200816 15.200000 6.220816 15.200000 Q 5.620816 15.200000 4.930816 15.060000 Q 4.240816 14.920000 3.650816 14.570000 Q 3.060816 14.220000 2.680816 13.630000 Q 2.300816 13.040000 2.300816 12.160000 Q 2.300816 11.300000 2.720816 10.760000 Q 3.140816 10.220000 3.820816 9.890000 Q 4.500816 9.560000 5.380816 9.360000 Q 6.260816 9.160000 7.160816 8.980000 Q 8.080816 8.800000 8.950816 8.550000 Q 9.820816 8.300000 10.510816 7.870000 Q 11.200816 7.440000 11.620816 6.750000 Q 12.040816 6.060000 12.040816 5.020000 Q 12.040816 3.900000 11.560816 3.140000 Q 11.080816 2.380000 10.350816 1.900000 Q 9.620816 1.420000 8.730816 1.210000 Q 7.840816 1.000000 7.020816 1.000000 Q 5.760816 1.000000 4.660816 1.270000 Q 3.560816 1.540000 2.740816 2.150000 Q 1.920816 2.760000 1.450816 3.720000 Q 0.980816 4.680000 1.000816 6.060000 L 1.880816 6.060000 Q 1.820816 4.880000 2.220816 4.070000 Q 2.620816 3.260000 3.330816 2.740000 Q 4.040816 2.220000 5.000816 1.990000 Q 5.960816 1.760000 7.020816 1.760000 Q 7.660816 1.760000 8.390816 1.920000 Q 9.120816 2.080000 9.730816 2.460000 Q 10.340816 2.840000 10.750816 3.460000 Q 11.160816 4.080000 11.160816 5.020000 Q 11.160816 5.920000 10.740816 6.490000 Q 10.320816 7.060000 9.630816 7.410000 Q 8.940816 7.760000 8.070816 7.970000 Q 7.200816 8.180000 6.280816 8.360000 Q 5.380816 8.540000 4.500816 8.780000 Q 3.620816 9.020000 2.940816 9.430000 Q 2.260816 9.840000 1.840816 10.490000 Q 1.420816 11.140000 1.420816 12.160000 Q 1.420816 13.180000 1.850816 13.910000 Q 2.280816 14.640000 2.970816 15.090000 Q 3.660816 15.540000 4.520816 15.750000 Q 5.380816 15.960000 6.220816 15.960000 Q 7.340816 15.960000 8.310816 15.710000 Q 9.280816 15.460000 10.010816 14.930000 Q 10.740816 14.400000 11.180816 13.560000 Q 11.620816 12.720000 11.680816 11.540000 Z M 28.080816 15.620000 L 28.960816 15.620000 L 28.960816 1.340000 L 28.080816 1.340000 Z M 45.480816 15.620000 L 46.740816 15.620000 L 52.320816 2.320000 L 52.360816 2.320000 L 57.880816 15.620000 L 59.140816 15.620000 L 59.140816 1.340000 L 58.260816 1.340000 L 58.260816 14.540000 L 58.220816 14.540000 L 52.780816 1.340000 L 51.900816 1.340000 L 46.400816 14.540000 L 46.360816 14.540000 L 46.360816 1.340000 L 45.480816 1.340000 Z M 75.660816 15.620000 L 81.740816 15.620000 Q 82.340816 15.620000 83.070816 15.480000 Q 83.800816 15.340000 84.430816 14.910000 Q 85.060816 14.480000 85.480816 13.690000 Q 85.900816 12.900000 85.900816 11.620000 Q 85.900816 9.740000 84.740816 8.720000 Q 83.580816 7.700000 81.420816 7.700000 L 76.540816 7.700000 L 76.540816 1.340000 L 75.660816 1.340000 Z M 76.540816 8.460000 L 81.560816 8.460000 Q 82.520816 8.460000 83.190816 8.750000 Q 83.860816 9.040000 84.260816 9.500000 Q 84.660816 9.960000 84.840816 10.520000 Q 85.020816 11.080000 85.020816 11.640000 Q 85.020816 12.040000 84.900816 12.590000 Q 84.780816 13.140000 84.420816 13.650000 Q 84.060816 14.160000 83.410816 14.510000 Q 82.760816 14.860000 81.680816 14.860000 L 76.540816 14.860000 Z M 101.480816 15.620000 L 102.360816 15.620000 L 102.360816 2.100000 L 110.460816 2.100000 L 110.460816 1.340000 L 101.480816 1.340000 Z M 133.140816 15.620000 L 134.120816 15.620000 L 128.380816 7.320000 L 128.380816 1.340000 L 127.500816 1.340000 L 127.500816 7.320000 L 121.800816 15.620000 L 122.800816 15.620000 L 127.960816 8.060000 Z M 168.520816 15.620000 L 174.480816 15.620000 Q 175.420816 15.620000 176.240816 15.430000 Q 177.060816 15.240000 177.680816 14.810000 Q 178.300816 14.380000 178.650816 13.680000 Q 179.000816 12.980000 179.000816 11.940000 Q 179.000816 10.500000 178.190816 9.510000 Q 177.380816 8.520000 175.940816 8.280000 L 175.940816 8.240000 Q 176.920816 8.120000 177.490816 7.720000 Q 178.060816 7.320000 178.340816 6.740000 Q 178.620816 6.160000 178.700816 5.460000 Q 178.780816 4.760000 178.780816 4.060000 Q 178.780816 3.640000 178.780816 3.240000 Q 178.780816 2.840000 178.820816 2.490000 Q 178.860816 2.140000 178.950816 1.840000 Q 179.040816 1.540000 179.200816 1.340000 L 178.220816 1.340000 Q 177.940816 1.840000 177.910816 2.510000 Q 177.880816 3.180000 177.880816 3.900000 Q 177.880816 4.620000 177.820816 5.330000 Q 177.760816 6.040000 177.440816 6.600000 Q 177.120816 7.160000 176.430816 7.500000 Q 175.740816 7.840000 174.480816 7.840000 L 169.400816 7.840000 L 169.400816 1.340000 L 168.520816 1.340000 Z M 174.480816 8.600000 Q 175.260816 8.600000 175.930816 8.790000 Q 176.600816 8.980000 177.080816 9.380000 Q 177.560816 9.780000 177.840816 10.400000 Q 178.120816 11.020000 178.120816 11.880000 Q 178.120816 12.680000 177.820816 13.250000 Q 177.520816 13.820000 177.020816 14.180000 Q 176.520816 14.540000 175.860816 14.700000 Q 175.200816 14.860000 174.480816 14.860000 L 169.400816 14.860000 L 169.400816 8.600000 Z M 195.120816 15.620000 L 204.720816 15.620000 L 204.720816 14.860000 L 196.000816 14.860000 L 196.000816 9.140000 L 204.200816 9.140000 L 204.200816 8.380000 L 196.000816 8.380000 L 196.000816 2.100000 L 204.820816 2.100000 L 204.820816 1.340000 L 195.120816 1.340000 Z M 229.640816 11.540000 Q 229.600816 12.460000 229.250816 13.140000 Q 228.900816 13.820000 228.300816 14.280000 Q 227.700816 14.740000 226.870816 14.970000 Q 226.040816 15.200000 225.060816 15.200000 Q 224.460816 15.200000 223.770816 15.060000 Q 223.080816 14.920000 222.490816 14.570000 Q 221.900816 14.220000 221.520816 13.630000 Q 221.140816 13.040000 221.140816 12.160000 Q 221.140816 11.300000 221.560816 10.760000 Q 221.980816 10.220000 222.660816 9.890000 Q 223.340816 9.560000 224.220816 9.360000 Q 225.100816 9.160000 226.000816 8.980000 Q 226.920816 8.800000 227.790816 8.550000 Q 228.660816 8.300000 229.350816 7.870000 Q 230.040816 7.440000 230.460816 6.750000 Q 230.880816 6.060000 230.880816 5.020000 Q 230.880816 3.900000 230.400816 3.140000 Q 229.920816 2.380000 229.190816 1.900000 Q 228.460816 1.420000 227.570816 1.210000 Q 226.680816 1.000000 225.860816 1.000000 Q 224.600816 1.000000 223.500816 1.270000 Q 222.400816 1.540000 221.580816 2.150000 Q 220.760816 2.760000 220.290816 3.720000 Q 219.820816 4.680000 219.840816 6.060000 L 220.720816 6.060000 Q 220.660816 4.880000 221.060816 4.070000 Q 221.460816 3.260000 222.170816 2.740000 Q 222.880816 2.220000 223.840816 1.990000 Q 224.800816 1.760000 225.860816 1.760000 Q 226.500816 1.760000 227.230816 1.920000 Q 227.960816 2.080000 228.570816 2.460000 Q 229.180816 2.840000 229.590816 3.460000 Q 230.000816 4.080000 230.000816 5.020000 Q 230.000816 5.920000 229.580816 6.490000 Q 229.160816 7.060000 228.470816 7.410000 Q 227.780816 7.760000 226.910816 7.970000 Q 226.040816 8.180000 225.120816 8.360000 Q 224.220816 8.540000 223.340816 8.780000 Q 222.460816 9.020000 221.780816 9.430000 Q 221.100816 9.840000 220.680816 10.490000 Q 220.260816 11.140000 220.260816 12.160000 Q 220.260816 13.180000 220.690816 13.910000 Q 221.120816 14.640000 221.810816 15.090000 Q 222.500816 15.540000 223.360816 15.750000 Q 224.220816 15.960000 225.060816 15.960000 Q 226.180816 15.960000 227.150816 15.710000 Q 228.120816 15.460000 228.850816 14.930000 Q 229.580816 14.400000 230.020816 13.560000 Q 230.460816 12.720000 230.520816 11.540000 Z M 246.920816 15.620000 L 253.000816 15.620000 Q 253.600816 15.620000 254.330816 15.480000 Q 255.060816 15.340000 255.690816 14.910000 Q 256.320816 14.480000 256.740816 13.690000 Q 257.160816 12.900000 257.160816 11.620000 Q 257.160816 9.740000 256.000816 8.720000 Q 254.840816 7.700000 252.680816 7.700000 L 247.800816 7.700000 L 247.800816 1.340000 L 246.920816 1.340000 Z M 247.800816 8.460000 L 252.820816 8.460000 Q 253.780816 8.460000 254.450816 8.750000 Q 255.120816 9.040000 255.520816 9.500000 Q 255.920816 9.960000 256.100816 10.520000 Q 256.280816 11.080000 256.280816 11.640000 Q 256.280816 12.040000 256.160816 12.590000 Q 256.040816 13.140000 255.680816 13.650000 Q 255.320816 14.160000 254.670816 14.510000 Q 254.020816 14.860000 252.940816 14.860000 L 247.800816 14.860000 Z M 285.680816 8.480000 Q 285.680816 6.920000 285.220816 5.550000 Q 284.760816 4.180000 283.890816 3.170000 Q 283.020816 2.160000 281.760816 1.580000 Q 280.500816 1.000000 278.900816 1.000000 Q 277.300816 1.000000 276.030816 1.580000 Q 274.760816 2.160000 273.890816 3.170000 Q 273.020816 4.180000 272.560816 5.550000 Q 272.100816 6.920000 272.100816 8.480000 Q 272.100816 10.040000 272.560816 11.410000 Q 273.020816 12.780000 273.890816 13.790000 Q 274.760816 14.800000 276.030816 15.380000 Q 277.300816 15.960000 278.900816 15.960000 Q 280.500816 15.960000 281.760816 15.380000 Q 283.020816 14.800000 283.890816 13.790000 Q 284.760816 12.780000 285.220816 11.410000 Q 285.680816 10.040000 285.680816 8.480000 Z M 272.980816 8.480000 Q 272.980816 7.100000 273.380816 5.880000 Q 273.780816 4.660000 274.540816 3.750000 Q 275.300816 2.840000 276.400816 2.300000 Q 277.500816 1.760000 278.900816 1.760000 Q 280.300816 1.760000 281.390816 2.300000 Q 282.480816 2.840000 283.240816 3.750000 Q 284.000816 4.660000 284.400816 5.880000 Q 284.800816 7.100000 284.800816 8.480000 Q 284.800816 9.860000 284.400816 11.080000 Q 284.000816 12.300000 283.240816 13.210000 Q 282.480816 14.120000 281.390816 14.660000 Q 280.300816 15.200000 278.900816 15.200000 Q 277.500816 15.200000 276.400816 14.660000 Q 275.300816 14.120000 274.540816 13.210000 Q 273.780816 12.300000 273.380816 11.080000 Q 272.980816 9.860000 272.980816 8.480000 Z M 301.560816 15.620000 L 302.660816 15.620000 L 311.680816 2.520000 L 311.720816 2.520000 L 311.720816 15.620000 L 312.600816 15.620000 L 312.600816 1.340000 L 311.560816 1.340000 L 302.480816 14.540000 L 302.440816 14.540000 L 302.440816 1.340000 L 301.560816 1.340000 Z M 338.440816 11.540000 Q 338.400816 12.460000 338.050816 13.140000 Q 337.700816 13.820000 337.100816 14.280000 Q 336.500816 14.740000 335.670816 14.970000 Q 334.840816 15.200000 333.860816 15.200000 Q 333.260816 15.200000 332.570816 15.060000 Q 331.880816 14.920000 331.290816 14.570000 Q 330.700816 14.220000 330.320816 13.630000 Q 329.940816 13.040000 329.940816 12.160000 Q 329.940816 11.300000 330.360816 10.760000 Q 330.780816 10.220000 331.460816 9.890000 Q 332.140816 9.560000 333.020816 9.360000 Q 333.900816 9.160000 334.800816 8.980000 Q 335.720816 8.800000 336.590816 8.550000 Q 337.460816 8.300000 338.150816 7.870000 Q 338.840816 7.440000 339.260816 6.750000 Q 339.680816 6.060000 339.680816 5.020000 Q 339.680816 3.900000 339.200816 3.140000 Q 338.720816 2.380000 337.990816 1.900000 Q 337.260816 1.420000 336.370816 1.210000 Q 335.480816 1.000000 334.660816 1.000000 Q 333.400816 1.000000 332.300816 1.270000 Q 331.200816 1.540000 330.380816 2.150000 Q 329.560816 2.760000 329.090816 3.720000 Q 328.620816 4.680000 328.640816 6.060000 L 329.520816 6.060000 Q 329.460816 4.880000 329.860816 4.070000 Q 330.260816 3.260000 330.970816 2.740000 Q 331.680816 2.220000 332.640816 1.990000 Q 333.600816 1.760000 334.660816 1.760000 Q 335.300816 1.760000 336.030816 1.920000 Q 336.760816 2.080000 337.370816 2.460000 Q 337.980816 2.840000 338.390816 3.460000 Q 338.800816 4.080000 338.800816 5.020000 Q 338.800816 5.920000 338.380816 6.490000 Q 337.960816 7.060000 337.270816 7.410000 Q 336.580816 7.760000 335.710816 7.970000 Q 334.840816 8.180000 333.920816 8.360000 Q 333.020816 8.540000 332.140816 8.780000 Q 331.260816 9.020000 330.580816 9.430000 Q 329.900816 9.840000 329.480816 10.490000 Q 329.060816 11.140000 329.060816 12.160000 Q 329.060816 13.180000 329.490816 13.910000 Q 329.920816 14.640000 330.610816 15.090000 Q 331.300816 15.540000 332.160816 15.750000 Q 333.020816 15.960000 333.860816 15.960000 Q 334.980816 15.960000 335.950816 15.710000 Q 336.920816 15.460000 337.650816 14.930000 Q 338.380816 14.400000 338.820816 13.560000 Q 339.260816 12.720000 339.320816 11.540000 Z M 355.720816 15.620000 L 356.600816 15.620000 L 356.600816 1.340000 L 355.720816 1.340000 Z M 377.400816 2.100000 L 377.440816 2.100000 L 382.380816 15.620000 L 383.260816 15.620000 L 377.920816 1.340000 L 376.900816 1.340000 L 371.580816 15.620000 L 372.500816 15.620000 Z M 398.240816 15.620000 L 407.840816 15.620000 L 407.840816 14.860000 L 399.120816 14.860000 L 399.120816 9.140000 L 407.320816 9.140000 L 407.320816 8.380000 L 399.120816 8.380000 L 399.120816 2.100000 L 407.940816 2.100000 L 407.940816 1.340000 L 398.240816 1.340000 Z" transform="scale(1.000000,1.000000) translate(151.479592,81.040000)" fill="url(#105553174849056140359056770944)" opacity="1.000000"></path>
        <path d="M 115.464900 24.447100 L 115.198500 25.027900 L 114.907900 25.601400 L 114.593000 26.167400 L 114.254000 26.726000 L 113.890700 27.277100 L 113.700000 27.550000 L 113.504400 27.819300 L 113.102900 28.343200 L 112.687300 28.847100 L 112.257600 29.331100 L 111.813800 29.795100 L 111.356000 30.239300 L 110.884100 30.663500 L 110.398200 31.067800 L 109.898200 31.452100 L 109.384100 31.816600 L 108.856000 32.161100 L 108.313800 32.485700 L 107.757600 32.790400 L 107.187300 33.075200 L 106.602900 33.340000 L 106.004400 33.585000 L 105.700000 33.700000 L 105.952200 33.995200 L 106.432700 34.594400 L 106.881100 35.205300 L 107.297500 35.828000 L 107.681900 36.462400 L 108.034200 37.108400 L 108.354500 37.766300 L 108.642800 38.435800 L 108.899100 39.117000 L 109.123300 39.810000 L 109.315500 40.514700 L 109.475600 41.231100 L 109.603800 41.959200 L 109.699900 42.699100 L 109.763900 43.450600 L 109.795900 44.213900 L 109.800000 44.600000 L 109.795100 45.035400 L 109.756400 45.894400 L 109.679100 46.737400 L 109.563100 47.564400 L 109.408400 48.375300 L 109.215000 49.170200 L 108.983000 49.949100 L 108.712300 50.712000 L 108.402900 51.458900 L 108.054900 52.189700 L 107.668200 52.904600 L 107.242800 53.603400 L 106.778700 54.286200 L 106.276000 54.953000 L 105.734600 55.603800 L 105.154500 56.238600 L 104.850000 56.550000 L 104.538700 56.854500 L 103.904700 57.434600 L 103.255500 57.976000 L 102.591000 58.478700 L 101.911300 58.942800 L 101.216400 59.368200 L 100.506200 59.754900 L 99.780900 60.102900 L 99.040200 60.412300 L 98.284400 60.683000 L 97.513300 60.915000 L 96.727000 61.108400 L 95.925400 61.263100 L 95.108600 61.379100 L 94.276600 61.456400 L 93.429300 61.495100 L 93.000000 61.500000 L 66.800000 61.500000 L 66.800000 24.016500 L 73.700000 24.016500 L 73.700000 27.800000 L 100.800000 27.800000 L 101.270500 27.752500 L 102.184500 27.597800 L 103.062600 27.363400 L 103.904800 27.049400 L 104.711100 26.655600 L 105.481400 26.182200 L 106.215800 25.629100 L 106.914200 24.996200 L 107.250000 24.650000 L 107.570800 24.289600 L 107.783200 24.016500 L 115.642200 24.016500 Z M 260.900000 31.200000 L 286.900000 61.400000 L 277.800000 61.400000 L 256.400000 36.500000 L 234.900000 61.400000 L 225.900000 61.400000 L 251.900000 31.200000 L 245.715500 24.016500 L 254.694200 24.016500 L 256.400000 26.000000 L 258.105800 24.016500 L 267.084500 24.016500 Z M 172.137900 24.586100 L 172.049600 25.538500 L 172.005500 26.508400 L 172.000000 27.000000 L 172.000000 61.400000 L 165.200000 61.400000 L 165.200000 27.000000 L 165.207400 26.328100 L 165.266700 25.003100 L 165.356900 24.016500 L 172.218600 24.016500 Z M 217.033200 25.003100 L 217.092500 26.328100 L 217.100000 27.000000 L 217.100000 61.400000 L 210.300000 61.400000 L 210.300000 27.000000 L 210.294500 26.508400 L 210.250700 25.538500 L 210.163200 24.586100 L 210.083200 24.016500 L 216.943000 24.016500 Z M 8.691600 24.852300 L 8.429900 25.947300 L 8.220600 27.064500 L 8.063500 28.203900 L 7.958800 29.365600 L 7.906500 30.549600 L 7.900000 31.150000 L 7.906500 31.750300 L 7.958800 32.934300 L 8.063500 34.096000 L 8.220600 35.235400 L 8.429900 36.352600 L 8.691600 37.447600 L 9.005700 38.520200 L 9.372100 39.570600 L 9.790900 40.598700 L 10.262000 41.604600 L 10.785400 42.588200 L 11.361200 43.549500 L 11.989300 44.488600 L 12.669800 45.405400 L 13.402600 46.299900 L 14.187700 47.172200 L 14.600000 47.600000 L 15.021400 48.018300 L 15.880800 48.815200 L 16.762100 49.558900 L 17.665200 50.249600 L 18.590200 50.887100 L 19.537100 51.471400 L 20.505800 52.002700 L 21.496400 52.480800 L 22.508900 52.905800 L 23.543300 53.277700 L 24.599600 53.596400 L 25.677700 53.862100 L 26.777700 54.074600 L 27.899600 54.233900 L 29.043300 54.340200 L 30.208900 54.393300 L 30.800000 54.400000 L 31.186500 54.397000 L 31.953700 54.373100 L 32.713000 54.325500 L 33.464600 54.254000 L 34.208300 54.158700 L 34.944300 54.039500 L 35.672400 53.896600 L 36.392700 53.729800 L 37.105200 53.539200 L 37.809900 53.324700 L 38.506800 53.086400 L 39.195800 52.824300 L 39.877100 52.538400 L 40.550500 52.228600 L 41.216200 51.895000 L 41.874000 51.537600 L 42.200000 51.350000 L 42.522900 51.157300 L 43.156500 50.760100 L 43.773700 50.346800 L 44.374500 49.917500 L 44.958800 49.472200 L 45.526800 49.010800 L 46.078400 48.533500 L 46.613500 48.040100 L 47.132300 47.530800 L 47.634600 47.005400 L 48.120600 46.464000 L 48.590100 45.906500 L 49.043200 45.333100 L 49.479900 44.743700 L 49.900200 44.138200 L 50.304100 43.516700 L 50.500000 43.200000 L 58.200000 43.200000 L 57.977400 43.703200 L 57.509400 44.691500 L 57.011000 45.655500 L 56.482100 46.595400 L 55.922700 47.511000 L 55.332900 48.402400 L 54.712500 49.269600 L 54.061800 50.112500 L 53.380500 50.931300 L 52.668800 51.725800 L 51.926600 52.496100 L 51.154000 53.242200 L 50.350800 53.964100 L 49.517200 54.661800 L 48.653200 55.335200 L 47.758600 55.984400 L 47.300000 56.300000 L 46.835800 56.607600 L 45.897500 57.193500 L 44.945900 57.740400 L 43.981100 58.248200 L 43.003000 58.716900 L 42.011600 59.146600 L 41.006900 59.537300 L 39.988900 59.888800 L 38.957700 60.201300 L 37.913100 60.474800 L 36.855300 60.709100 L 35.784200 60.904400 L 34.699900 61.060700 L 33.602200 61.177900 L 32.491300 61.256000 L 31.367000 61.295100 L 30.800000 61.300000 L 30.416400 61.297800 L 29.654600 61.280500 L 28.899700 61.245900 L 28.151800 61.194100 L 27.410800 61.124900 L 26.676700 61.038500 L 25.949500 60.934800 L 25.229300 60.813800 L 24.516100 60.675500 L 23.809700 60.520000 L 23.110300 60.347100 L 22.417800 60.157000 L 21.732300 59.949500 L 21.053600 59.724800 L 20.382000 59.482800 L 19.717200 59.223600 L 19.059400 58.947000 L 18.408500 58.653200 L 17.764600 58.342000 L 17.127600 58.013600 L 16.497500 57.667900 L 15.874400 57.304900 L 15.258100 56.924600 L 14.648900 56.527100 L 14.046500 56.112200 L 13.451100 55.680100 L 12.862600 55.230700 L 12.281100 54.764000 L 11.706500 54.280000 L 11.138800 53.778700 L 10.578100 53.260200 L 10.024300 52.724400 L 9.750000 52.450000 L 9.478600 52.172500 L 8.948900 51.612400 L 8.436200 51.045200 L 7.940600 50.470900 L 7.462000 49.889700 L 7.000600 49.301400 L 6.556300 48.706100 L 6.129000 48.103800 L 5.718900 47.494400 L 5.325800 46.878000 L 4.949800 46.254500 L 4.591000 45.624100 L 4.249200 44.986600 L 3.924400 44.342000 L 3.616800 43.690500 L 3.326300 43.031900 L 3.052900 42.366300 L 2.796500 41.693600 L 2.557300 41.013900 L 2.335100 40.327200 L 2.130000 39.633400 L 1.942000 38.932700 L 1.771100 38.224900 L 1.617300 37.510000 L 1.480600 36.788100 L 1.361000 36.059200 L 1.258400 35.323300 L 1.173000 34.580300 L 1.104600 33.830300 L 1.053400 33.073300 L 1.019200 32.309200 L 1.002100 31.538100 L 1.000000 31.150000 L 1.002100 30.761800 L 1.019200 29.990700 L 1.053400 29.226600 L 1.104600 28.469600 L 1.173000 27.719600 L 1.258400 26.976600 L 1.361000 26.240700 L 1.480600 25.511800 L 1.617300 24.789900 L 1.771100 24.075000 L 1.785200 24.016500 L 8.936400 24.016500 Z M 73.700000 34.700000 L 73.700000 54.600000 L 93.000000 54.600000 L 93.507800 54.588600 L 94.495300 54.498000 L 95.445300 54.316700 L 96.357800 54.044900 L 97.232800 53.682400 L 98.070300 53.229200 L 98.870300 52.685500 L 99.632800 52.051100 L 100.000000 51.700000 L 100.351100 51.332600 L 100.985500 50.568500 L 101.529200 49.765400 L 101.982400 48.923200 L 102.344900 48.041900 L 102.616700 47.121600 L 102.798000 46.162300 L 102.888600 45.163800 L 102.900000 44.650000 L 102.888600 44.136100 L 102.798000 43.137600 L 102.616700 42.178300 L 102.344900 41.258000 L 101.982400 40.376700 L 101.529200 39.534500 L 100.985500 38.731400 L 100.351100 37.967300 L 100.000000 37.600000 L 99.632800 37.248800 L 98.870300 36.614400 L 98.070300 36.070700 L 97.232800 35.617500 L 96.357800 35.255000 L 95.445300 34.983200 L 94.495300 34.801900 L 93.507800 34.711300 L 93.000000 34.700000 Z M 156.600000 33.500000 L 125.600000 33.500000 L 125.600000 26.600000 L 156.600000 26.600000 Z M 31.367000 1.004800 L 32.491300 1.043900 L 33.602200 1.122000 L 34.699900 1.239200 L 35.784200 1.395500 L 36.855300 1.590800 L 37.913100 1.825100 L 38.957700 2.098600 L 39.988900 2.411100 L 41.006900 2.762600 L 42.011600 3.153300 L 43.003000 3.583000 L 43.981100 4.051700 L 44.945900 4.559500 L 45.897500 5.106400 L 46.835800 5.692300 L 47.300000 6.000000 L 47.758600 6.315500 L 48.653200 6.964700 L 49.517200 7.638100 L 50.350800 8.335800 L 51.154000 9.057700 L 51.926600 9.803800 L 52.668800 10.574100 L 53.380500 11.368600 L 54.061800 12.187400 L 54.712500 13.030300 L 55.332900 13.897500 L 55.411600 14.016500 L 46.349600 14.016500 L 46.078400 13.766400 L 45.526800 13.289100 L 44.958800 12.827700 L 44.374500 12.382400 L 43.773700 11.953100 L 43.156500 11.539800 L 42.522900 11.142600 L 42.200000 10.950000 L 41.874000 10.762300 L 41.216200 10.404900 L 40.550500 10.071300 L 39.877100 9.761500 L 39.195800 9.475600 L 38.506800 9.213500 L 37.809900 8.975200 L 37.105200 8.760700 L 36.392700 8.570100 L 35.672400 8.403300 L 34.944300 8.260400 L 34.208300 8.141200 L 33.464600 8.045900 L 32.713000 7.974400 L 31.953700 7.926800 L 31.186500 7.902900 L 30.800000 7.900000 L 30.208900 7.906600 L 29.043300 7.959700 L 27.899600 8.066000 L 26.777700 8.225300 L 25.677700 8.437800 L 24.599600 8.703500 L 23.543300 9.022200 L 22.508900 9.394100 L 21.496400 9.819100 L 20.505800 10.297200 L 19.537100 10.828500 L 18.590200 11.412800 L 17.665200 12.050300 L 16.762100 12.741000 L 15.880800 13.484700 L 15.307300 14.016500 L 6.256400 14.016500 L 6.556300 13.593800 L 7.000600 12.998500 L 7.462000 12.410200 L 7.940600 11.829000 L 8.436200 11.254700 L 8.948900 10.687500 L 9.478600 10.127400 L 9.750000 9.850000 L 10.024300 9.575500 L 10.578100 9.039700 L 11.138800 8.521200 L 11.706500 8.019900 L 12.281100 7.535900 L 12.862600 7.069200 L 13.451100 6.619800 L 14.046500 6.187700 L 14.648900 5.772800 L 15.258100 5.375300 L 15.874400 4.995000 L 16.497500 4.632000 L 17.127600 4.286300 L 17.764600 3.957900 L 18.408500 3.646700 L 19.059400 3.352900 L 19.717200 3.076300 L 20.382000 2.817100 L 21.053600 2.575100 L 21.732300 2.350400 L 22.417800 2.142900 L 23.110300 1.952800 L 23.809700 1.779900 L 24.516100 1.624400 L 25.229300 1.486100 L 25.949500 1.365100 L 26.676700 1.261400 L 27.410800 1.175000 L 28.151800 1.105800 L 28.899700 1.054000 L 29.654600 1.019400 L 30.416400 1.002100 L 30.800000 1.000000 Z M 100.823000 1.017000 L 101.657400 1.078800 L 102.476100 1.177200 L 103.279200 1.312400 L 104.066700 1.484200 L 104.838600 1.692800 L 105.594900 1.938100 L 106.335500 2.220200 L 107.060500 2.538900 L 107.769900 2.894400 L 108.463600 3.286600 L 109.141700 3.715500 L 109.804200 4.181100 L 110.451100 4.683400 L 111.082400 5.222500 L 111.698000 5.798300 L 112.000000 6.100000 L 112.295300 6.408200 L 112.857800 7.036300 L 113.382800 7.680000 L 113.870300 8.339400 L 114.320300 9.014400 L 114.732800 9.705000 L 115.107800 10.411300 L 115.445300 11.133200 L 115.745300 11.870700 L 116.007800 12.623800 L 116.232800 13.392500 L 116.382000 14.016500 L 109.158100 14.016500 L 108.982400 13.586300 L 108.529200 12.739400 L 107.985500 11.933200 L 107.351100 11.167500 L 107.000000 10.800000 L 106.632400 10.448800 L 105.866700 9.814400 L 105.060500 9.270700 L 104.213600 8.817500 L 103.326100 8.455000 L 102.398000 8.183200 L 101.429200 8.001900 L 100.419900 7.911300 L 99.900000 7.900000 L 73.700000 7.900000 L 73.700000 14.016500 L 66.800000 14.016500 L 66.800000 1.000000 L 100.400000 1.000000 Z M 191.818700 1.007400 L 193.137900 1.066700 L 194.432400 1.185500 L 195.702300 1.363600 L 196.947700 1.601100 L 198.168400 1.898000 L 199.364500 2.254200 L 200.535900 2.669900 L 201.682800 3.144900 L 202.805100 3.679200 L 203.902700 4.273000 L 204.975800 4.926100 L 206.024200 5.638600 L 207.048000 6.410500 L 208.047300 7.241700 L 209.021900 8.132400 L 209.500000 8.600000 L 209.967500 9.078100 L 210.858200 10.053100 L 211.689400 11.053100 L 212.461300 12.078100 L 213.173800 13.128100 L 213.713500 14.016500 L 205.236000 14.016500 L 205.044500 13.805300 L 204.700000 13.450000 L 204.347700 13.102300 L 203.629700 12.440200 L 202.893800 11.822300 L 202.139900 11.248400 L 201.368000 10.718700 L 200.578200 10.233200 L 199.770400 9.791800 L 198.944600 9.394500 L 198.100800 9.041400 L 197.239100 8.732400 L 196.359400 8.467600 L 195.461800 8.246900 L 194.546100 8.070300 L 193.612500 7.937900 L 192.661000 7.849600 L 191.691500 7.805500 L 191.200000 7.800000 L 190.708400 7.805500 L 189.738500 7.849600 L 188.786100 7.937900 L 187.851400 8.070300 L 186.934200 8.246900 L 186.034600 8.467600 L 185.152500 8.732400 L 184.288100 9.041400 L 183.441200 9.394500 L 182.611900 9.791800 L 181.800200 10.233200 L 181.006100 10.718700 L 180.229500 11.248400 L 179.470500 11.822300 L 178.729100 12.440200 L 178.005300 13.102300 L 177.650000 13.450000 L 177.302300 13.805300 L 177.109100 14.016500 L 168.586400 14.016500 L 169.126100 13.128100 L 169.838600 12.078100 L 170.610500 11.053100 L 171.441700 10.053100 L 172.332400 9.078100 L 172.799900 8.600000 L 173.278000 8.132400 L 174.252600 7.241700 L 175.251900 6.410500 L 176.275700 5.638600 L 177.324100 4.926100 L 178.397200 4.273000 L 179.494800 3.679200 L 180.617100 3.144900 L 181.764000 2.669900 L 182.935400 2.254200 L 184.131500 1.898000 L 185.352200 1.601100 L 186.597600 1.363600 L 187.867500 1.185500 L 189.162000 1.066700 L 190.481200 1.007400 L 191.150000 1.000000 Z M 246.094200 14.016500 L 237.106300 14.016500 L 225.900000 1.000000 L 234.900000 1.000000 Z M 275.693700 14.016500 L 266.705800 14.016500 L 277.900000 1.000000 L 286.900000 1.000000 Z" transform="scale(1.000000,1.000000) translate(212.000000,106.000000)" fill="url(#105553174849056140359056955520)" opacity="1.000000"></path>
    </g>
</svg>